<?xml version="1.0" encoding="utf-8"?>
<!-- Generator: Adobe Illustrator 27.6.1, SVG Export Plug-In . SVG Version: 6.00 Build 0)  -->
<svg version="1.1" id="PRINT" xmlns="http://www.w3.org/2000/svg" xmlns:xlink="http://www.w3.org/1999/xlink" x="0px" y="0px"
	 viewBox="0 0 40 40" style="enable-background:new 0 0 40 40;" xml:space="preserve">
<style type="text/css">
	.st0{fill:#EEAA00;}
</style>
<g>
	<path class="st0" d="M24.3,18h-3.8c-0.3,0-0.5-0.3-0.4-0.6l1.2-3.3c0.2-0.4-0.4-0.8-0.8-0.4l-5.2,5.6C15,19.5,15.2,20,15.6,20h3.9
		c0.3,0,0.5,0.3,0.4,0.6l-1.4,4c-0.2,0.5,0.4,0.8,0.8,0.4l5.3-6.2C24.9,18.5,24.7,18,24.3,18L24.3,18z"/>
	<path class="st0" d="M20,3c-0.6,0-1,0.4-1,1v2c0,0.6,0.4,1,1,1c0.6,0,1-0.4,1-1V4C21,3.4,20.5,3,20,3z"/>
	<g>
		<path class="st0" d="M37.6,20.6c0-0.6-0.4-1-1-1h-2c-0.6,0-1,0.4-1,1s0.4,1,1,1h2C37.2,21.6,37.6,21.1,37.6,20.6z"/>
		<path class="st0" d="M6.4,20.6c0-0.6-0.4-1-1-1h-2c-0.6,0-1,0.4-1,1s0.4,1,1,1h2C6,21.6,6.4,21.1,6.4,20.6z"/>
	</g>
	<path class="st0" d="M10.4,11c0.4-0.4,0.4-1,0-1.4L9,8.2c-0.4-0.4-1-0.4-1.4,0c-0.4,0.4-0.4,1,0,1.4L9,11C9.4,11.4,10,11.4,10.4,11
		z"/>
	<path class="st0" d="M32.4,8.2c-0.4-0.4-1-0.4-1.4,0l-1.4,1.4c-0.4,0.4-0.4,1,0,1.4c0.4,0.4,1,0.4,1.4,0l1.4-1.4
		C32.8,9.2,32.8,8.5,32.4,8.2z"/>
	<g id="CUSTOM-group-2">
		<path class="st0" d="M1.1,33h12.5c0.5,1.6,2,2.9,3.9,2.9h5.1c1.8,0,3.4-1.2,3.9-2.9h12.5c0.6,0,1.2-0.5,1.2-1.2s-0.5-1.2-1.2-1.2
			h-0.7v-4.1c0-0.8-0.7-1.3-1.4-1.2c-1.9,0.4-3.1,0.7-4.7,0.6c-2.8,0-3.9-0.6-7.2-0.8c-2.1-0.2-3.8,0.8-4.9,2.2
			c-1.1-1.4-2.8-2.4-4.9-2.2c-3.2,0.2-4.4,0.8-7.2,0.8c-1.6,0-2.8-0.2-4.7-0.6c-0.7-0.2-1.4,0.4-1.4,1.2v4.1H1.2
			c-0.6,0-1.2,0.5-1.2,1.2S0.5,33,1.1,33L1.1,33z M4,28.1c1.2,0.2,2.4,0.4,3.9,0.4c3,0,4.2-0.6,7.3-0.8c1.1-0.1,3,0.6,3.6,2.7l0,0
			c0.3,1.2,2,1.2,2.3,0l0,0c0.5-2.2,2.4-2.8,3.6-2.7c3.1,0.2,4.4,0.8,7.3,0.8c1.4,0,2.7-0.2,3.9-0.4v2.6H25.4l0,0
			c-0.6,0-1.2,0.5-1.2,1.2c0,0.9-0.8,1.7-1.7,1.7h-5.1c-0.9,0-1.7-0.8-1.7-1.7c0-0.9-0.5-1.2-1.2-1.2c-0.6,0,0,0,0,0H4.2v-2.6H4z"/>
	</g>
	<path class="st0" d="M10.4,23.2c-0.2-0.8-0.3-1.7-0.3-2.6c0-5.5,4.5-10,10-10c5.5,0,10,4.5,10,10c0,0.9-0.1,1.8-0.3,2.6h2.1
		c0.2-0.8,0.3-1.7,0.3-2.6c0-6.6-5.4-12-12-12S8,14,8,20.6c0,0.9,0.1,1.8,0.3,2.6H10.4z"/>
</g>
</svg>
